<svg width="11" height="15" viewBox="0 0 11 15" fill="none" xmlns="http://www.w3.org/2000/svg">
<path d="M7.649 4.87039H8.48124C8.60646 4.87042 8.72657 4.92012 8.81519 5.0086C8.90382 5.09707 8.95372 5.21709 8.95397 5.34231C8.95599 6.35724 8.95437 6.39937 8.95255 8.05393C8.95174 8.97913 8.25682 9.7502 7.36342 9.87193V9.87274H4.70467V9.87193C4.42269 9.83287 4.15365 9.72884 3.91875 9.56803C3.68385 9.40723 3.48952 9.19405 3.35109 8.94531L1.41602 5.47113L1.61815 5.31598C1.81969 5.14382 2.08094 5.05798 2.34532 5.07705C2.60969 5.09612 2.85592 5.21856 3.03067 5.41786L3.57206 6.03885L3.5751 2.07574C3.57518 1.89895 3.64547 1.72943 3.7705 1.60443C3.89552 1.47944 4.06507 1.40921 4.24186 1.40918H4.24206C4.32974 1.40916 4.41656 1.42644 4.49755 1.46001C4.57855 1.49359 4.65212 1.54281 4.71407 1.60485C4.77602 1.6669 4.82513 1.74055 4.85858 1.82159C4.89204 1.90264 4.90918 1.98948 4.90903 2.07716C4.90822 2.51951 4.9068 3.12227 4.90559 3.71429H5.80406C5.92945 3.71434 6.0497 3.76419 6.13834 3.85288C6.22699 3.94157 6.27679 4.06183 6.27679 4.18723V4.30652H7.17627C7.30166 4.30657 7.42191 4.35642 7.51056 4.44511C7.59921 4.53379 7.649 4.65406 7.649 4.77945V4.87039Z" fill="#F7CAA5"/>
<path d="M8.4011 12.2832V13.7806H3.76758V12.2832H4.70514H7.36389H8.4011Z" fill="#E8B6CC"/>
<path d="M4.59642 4.32715V5.03624C4.36693 5.11807 4.11621 5.11807 3.88672 5.03624V4.32715H4.59642Z" fill="#EDB288"/>
</svg>
