<?xml version="1.0" encoding="UTF-8" standalone="no"?>
<svg
   width="7.5388842"
   height="8.4635601"
   viewBox="0 0 7.5388842 8.4635601"
   fill="none"
   version="1.1"
   id="svg8"
   sodipodi:docname="select_hand.svg"
   inkscape:version="1.1.2 (0a00cf5339, 2022-02-04)"
   xmlns:inkscape="http://www.inkscape.org/namespaces/inkscape"
   xmlns:sodipodi="http://sodipodi.sourceforge.net/DTD/sodipodi-0.dtd"
   xmlns="http://www.w3.org/2000/svg"
   xmlns:svg="http://www.w3.org/2000/svg">
  <defs
     id="defs12" />
  <sodipodi:namedview
     id="namedview10"
     pagecolor="#ffffff"
     bordercolor="#000000"
     borderopacity="0.25"
     inkscape:pageshadow="2"
     inkscape:pageopacity="0.0"
     inkscape:pagecheckerboard="0"
     showgrid="false"
     inkscape:zoom="28.133333"
     inkscape:cx="0.71090048"
     inkscape:cy="3.2879147"
     inkscape:window-width="1920"
     inkscape:window-height="1016"
     inkscape:window-x="0"
     inkscape:window-y="27"
     inkscape:window-maximized="1"
     inkscape:current-layer="svg8" />
  <path
     d="m 6.23298,3.46121 h 0.83224 c 0.12522,3e-5 0.24533,0.04973 0.33395,0.13821 0.08863,0.08847 0.13853,0.20849 0.13878,0.33371 0.00202,1.01493 4e-4,1.05706 -0.00142,2.71162 -8.1e-4,0.9252 -0.69573,1.69627 -1.58913,1.818 v 8.1e-4 H 3.28865 V 8.46275 C 3.00667,8.42369 2.73763,8.31966 2.50273,8.15885 2.26783,7.99805 2.0735,7.78487 1.93507,7.53613 L 0,4.06195 0.20213,3.9068 C 0.40367,3.73464 0.66492,3.6488 0.9293,3.66787 1.19367,3.68694 1.4399,3.80938 1.61465,4.00868 L 2.15604,4.62967 2.15908,0.66656002 c 8e-5,-0.17679 0.07037,-0.34631 0.1954,-0.47131 C 2.4795,0.07026002 2.64905,3.0017341e-5 2.82584,1.7341236e-8 h 2e-4 C 2.91372,-1.9982659e-5 3.00054,0.01726002 3.08153,0.05083002 c 0.081,0.03358 0.15457,0.0828 0.21652,0.14484 0.06195,0.06205 0.11106,0.1357 0.14451,0.21674 0.03346,0.08105 0.0506,0.16789 0.05045,0.25557 C 3.4922,1.11033 3.49078,1.71309 3.48957,2.30511 h 0.89847 c 0.12539,5e-5 0.24564,0.0499 0.33428,0.13859 0.08865,0.08869 0.13845,0.20895 0.13845,0.33435 v 0.11929 h 0.89948 c 0.12539,5e-5 0.24564,0.0499 0.33429,0.13859 0.08865,0.08868 0.13844,0.20895 0.13844,0.33434 z"
     fill="#f7caa5"
     id="path2" />
  <path
     d="m 3.1804,2.91797 v 0.70909 c -0.22949,0.08183 -0.48021,0.08183 -0.7097,0 V 2.91797 Z"
     fill="#edb288"
     id="path6" />
</svg>
